<svg xmlns="http://www.w3.org/2000/svg" width="64" height="64" viewBox="0 0 64 64" fill="none">
  <rect width="64" height="64" rx="18" fill="#C84F2E"/>
  <path d="M18 21.5C18 19.567 19.567 18 21.5 18H42.5C44.433 18 46 19.567 46 21.5C46 23.433 44.433 25 42.5 25H21.5C19.567 25 18 23.433 18 21.5Z" fill="#FFF6EB"/>
  <path d="M18 32C18 30.067 19.567 28.5 21.5 28.5H34.5C36.433 28.5 38 30.067 38 32C38 33.933 36.433 35.5 34.5 35.5H21.5C19.567 35.5 18 33.933 18 32Z" fill="#FFF6EB"/>
  <path d="M18 42.5C18 40.567 19.567 39 21.5 39H42.5C44.433 39 46 40.567 46 42.5C46 44.433 44.433 46 42.5 46H21.5C19.567 46 18 44.433 18 42.5Z" fill="#FFF6EB"/>
  <circle cx="43" cy="31.5" r="9.5" fill="#2A6F58"/>
  <path d="M38.75 31.5H47.25" stroke="#FFF6EB" stroke-width="2.5" stroke-linecap="round"/>
</svg>