<svg xmlns="http://www.w3.org/2000/svg" width="512" height="512" viewBox="0 0 512 512" fill="none">
  <rect width="512" height="512" rx="128" fill="#F8F4EE"/>
  <rect x="54" y="54" width="404" height="404" rx="104" fill="#C84F2E"/>
  <path d="M132 176C132 164.954 140.954 156 152 156H360C371.046 156 380 164.954 380 176C380 187.046 371.046 196 360 196H152C140.954 196 132 187.046 132 176Z" fill="#FFF6EB"/>
  <path d="M132 256C132 244.954 140.954 236 152 236H286C297.046 236 306 244.954 306 256C306 267.046 297.046 276 286 276H152C140.954 276 132 267.046 132 256Z" fill="#FFF6EB"/>
  <path d="M132 336C132 324.954 140.954 316 152 316H360C371.046 316 380 324.954 380 336C380 347.046 371.046 356 360 356H152C140.954 356 132 347.046 132 336Z" fill="#FFF6EB"/>
  <circle cx="350" cy="256" r="74" fill="#2A6F58"/>
  <path d="M318 256H382" stroke="#FFF6EB" stroke-width="18" stroke-linecap="round"/>
</svg>